<?xml version="1.0" encoding="UTF-8"?>
<svg width="32" height="32" viewBox="0 0 32 32" xmlns="http://www.w3.org/2000/svg">
  <defs>
    <linearGradient id="faviconBg" x1="0%" y1="0%" x2="100%" y2="100%">
      <stop offset="0%" style="stop-color:#1e3a8a"/>
      <stop offset="100%" style="stop-color:#3b82f6"/>
    </linearGradient>
    <linearGradient id="faviconFlame" x1="0%" y1="100%" x2="0%" y2="0%">
      <stop offset="0%" style="stop-color:#ea580c"/>
      <stop offset="50%" style="stop-color:#f59e0b"/>
      <stop offset="100%" style="stop-color:#fbbf24"/>
    </linearGradient>
  </defs>
  
  <!-- Background -->
  <rect width="32" height="32" rx="4" fill="url(#faviconBg)"/>
  
  <!-- Simplified Gas Flame -->
  <path d="M16 24 C16 24, 12 20, 12 14 C12 10, 14 8, 16 7 C18 9, 20 11, 20 16 C20 20, 18 24, 16 24 Z" 
        fill="url(#faviconFlame)"/>
  <path d="M16 20 C16 20, 14 18, 14 15 C14 13, 15 11, 16 10 C17 12, 18 13, 18 16 C18 18, 17 20, 16 20 Z" 
        fill="#fef3c7"/>
  
  <!-- Base -->
  <rect x="13" y="24" width="6" height="3" fill="#4b5563" rx="1"/>
</svg>